<svg xmlns="http://www.w3.org/2000/svg" viewBox="0 0 2970 2100" width="2970" height="2100">
  <defs>
    <!-- Gradients -->
    <linearGradient id="bgInside" x1="0%" y1="0%" x2="0%" y2="100%">
      <stop offset="0%" stop-color="#ffffff"/>
      <stop offset="100%" stop-color="#f8fafc"/>
    </linearGradient>
    <linearGradient id="cardGradPrimary" x1="0%" y1="0%" x2="100%" y2="100%">
      <stop offset="0%" stop-color="#f0f9ff"/>
      <stop offset="100%" stop-color="#e0f2fe"/>
    </linearGradient>
    <linearGradient id="cardGradAccent" x1="0%" y1="0%" x2="100%" y2="100%">
      <stop offset="0%" stop-color="#f0fdf4"/>
      <stop offset="100%" stop-color="#ccfbf1"/>
    </linearGradient>
    <linearGradient id="cardGradWarn" x1="0%" y1="0%" x2="100%" y2="100%">
      <stop offset="0%" stop-color="#fffbeb"/>
      <stop offset="100%" stop-color="#fef3c7"/>
    </linearGradient>
    <linearGradient id="cardGradPurple" x1="0%" y1="0%" x2="100%" y2="100%">
      <stop offset="0%" stop-color="#faf5ff"/>
      <stop offset="100%" stop-color="#f3e8ff"/>
    </linearGradient>
    <linearGradient id="cardGradDanger" x1="0%" y1="0%" x2="100%" y2="100%">
      <stop offset="0%" stop-color="#fef2f2"/>
      <stop offset="100%" stop-color="#fee2e2"/>
    </linearGradient>
    
    <filter id="cardShadow" x="-5%" y="-5%" width="110%" height="115%" filterUnits="userSpaceOnUse">
      <feDropShadow dx="0" dy="8" stdDeviation="12" flood-color="#0f172a" flood-opacity="0.07"/>
    </filter>
  </defs>

  <style>
    
    text { font-family: 'Prompt', 'Kanit', sans-serif; }
    .panel-header-title { font-size: 52px; font-weight: 800; }
    .card-title { font-size: 38px; font-weight: 800; }
    .body-bold { font-size: 32px; font-weight: 700; }
    .body-normal { font-size: 29px; font-weight: 500; fill: #334155; }
    .tag-text { font-size: 26px; font-weight: 800; text-anchor: middle; dominant-baseline: central; }
  </style>

  <!-- Background Base -->
  <rect width="2970" height="2100" fill="#e2e8f0"/>

  <!-- ========================================================
       PANEL 1 (LEFT 0 - 990): ฝึกหายใจ & การจัดท่านั่งลดเหนื่อย
       ======================================================== -->
  <g transform="translate(0, 0)">
    <rect width="986" height="2100" fill="url(#bgInside)"/>

    <!-- Top Tag -->
    <rect x="70" y="70" width="340" height="60" rx="30" fill="#e0f2fe" stroke="#0284c7" stroke-width="3"/>
    <text x="240" y="103" class="tag-text" fill="#0369a1">หัวข้อที่ 1 และ 2</text>

    <!-- Main Title -->
    <text x="70" y="195" class="panel-header-title" fill="#0369a1">ฝึกหายใจ &amp; จัดท่านั่ง</text>
    <text x="70" y="245" font-size="30" font-weight="600" fill="#64748b">เพิ่มออกซิเจน ลดการทำงานของกล้ามเนื้อช่วยหายใจ</text>

    <!-- CARD 1: Pursed-Lip Breathing -->
    <g transform="translate(60, 290)">
      <rect width="866" height="800" rx="28" fill="url(#cardGradPrimary)" stroke="#38bdf8" stroke-width="4" filter="url(#cardShadow)"/>
      
      <!-- Card Header -->
      <rect x="0" y="0" width="866" height="95" rx="28" fill="#0284c7"/>
      <path d="M 0 55 L 0 95 L 866 95 L 866 55 Z" fill="#0284c7"/>
      <circle cx="65" cy="48" r="30" fill="#ffffff"/>
      <text x="65" y="50" font-size="30" font-weight="800" fill="#0284c7" text-anchor="middle" dominant-baseline="central">1</text>
      <text x="120" y="60" class="card-title" fill="#ffffff">การฝึกหายใจแบบเม้มปาก (Pursed-Lip)</text>

      <!-- Key Formula Banner -->
      <rect x="40" y="125" width="786" height="80" rx="20" fill="#ffffff" stroke="#0284c7" stroke-width="3"/>
      <text x="433" y="176" font-size="34" font-weight="800" fill="#0369a1" text-anchor="middle">สูตรจำง่าย: " สูดเข้า 2 วิ ➔ เป่าออก 4 วิ "</text>

      <!-- Inhale Action -->
      <g transform="translate(45, 235)">
        <circle cx="45" cy="55" r="40" fill="#dbeafe" stroke="#0284c7" stroke-width="3"/>
        <text x="45" y="58" font-size="38" text-anchor="middle" dominant-baseline="central">👃</text>
        <text x="110" y="45" class="body-bold" fill="#0369a1">ขั้นที่ 1: สูดเข้าทางจมูกช้า ๆ (นับ 1–2)</text>
        <text x="110" y="85" class="body-normal">สูดลมเข้าลึกพอดี สังเกตหน้าท้องป่องขยาย ไม่เกร็งคอ</text>
      </g>

      <!-- Exhale Action -->
      <g transform="translate(45, 370)">
        <circle cx="45" cy="55" r="40" fill="#dbeafe" stroke="#0284c7" stroke-width="3"/>
        <text x="45" y="58" font-size="38" text-anchor="middle" dominant-baseline="central">👄</text>
        <text x="110" y="45" class="body-bold" fill="#0369a1">ขั้นที่ 2: ห่อปากเป่าลมออกช้า ๆ (นับ 1–2–3–4)</text>
        <text x="110" y="85" class="body-normal">ทำปากจู๋เหมือนเป่าเทียน เป่าลมออกยาวเป็น 2 เท่าของเวลาเข้า</text>
      </g>

      <!-- Senior Benefits -->
      <rect x="40" y="515" width="786" height="245" rx="20" fill="#ffffff" stroke="#7dd3fc" stroke-width="2"/>
      <text x="65" y="565" font-size="30" font-weight="800" fill="#0f766e">✨ ข้อดีสำหรับการฟื้นฟูปอด:</text>
      <text x="65" y="615" class="body-normal">• ป้องกันไม่ให้หลอดลมยุบหรือตีบแฟบขณะหายใจออก</text>
      <text x="65" y="665" class="body-normal">• ช่วยขับก๊าซคาร์บอนไดออกไซด์และลมค้างออกจากปอด</text>
      <text x="65" y="715" class="body-normal">• ลดความเหนื่อยล้า ชะลออัตราการหายใจให้สงบลง</text>
    </g>

    <!-- CARD 2: การจัดท่านั่งเพื่อลดอาการเหนื่อย -->
    <g transform="translate(60, 1130)">
      <rect width="866" height="900" rx="28" fill="url(#cardGradAccent)" stroke="#0d9488" stroke-width="4" filter="url(#cardShadow)"/>
      
      <!-- Card Header -->
      <rect x="0" y="0" width="866" height="95" rx="28" fill="#0d9488"/>
      <path d="M 0 55 L 0 95 L 866 95 L 866 55 Z" fill="#0d9488"/>
      <circle cx="65" cy="48" r="30" fill="#ffffff"/>
      <text x="65" y="50" font-size="30" font-weight="800" fill="#0d9488" text-anchor="middle" dominant-baseline="central">2</text>
      <text x="120" y="60" class="card-title" fill="#ffffff">การจัดท่านั่งเพื่อลดอาการเหนื่อย</text>

      <!-- Posture 1 & 2 Visual Columns -->
      <g transform="translate(45, 125)">
        <!-- Posture A: Knees -->
        <rect x="0" y="0" width="375" height="420" rx="20" fill="#ffffff" stroke="#14b8a6" stroke-width="3"/>
        <rect x="0" y="0" width="375" height="60" rx="20" fill="#ccfbf1"/>
        <path d="M 0 35 L 0 60 L 375 60 L 375 35 Z" fill="#ccfbf1"/>
        <text x="187" y="40" font-size="28" font-weight="800" fill="#0f766e" text-anchor="middle">ท่าที่ 1: วางมือบนเข่า</text>
        
        <!-- Figure A -->
        <g transform="translate(187, 180) scale(1.4)">
          <circle cx="0" cy="-35" r="18" fill="#fed7aa"/>
          <path d="M -12 -15 L 12 -15 L 8 25 L -8 25 Z" fill="#2dd4bf"/>
          <line x1="-8" y1="25" x2="-8" y2="60" stroke="#0f766e" stroke-width="6" stroke-linecap="round"/>
          <line x1="8" y1="25" x2="18" y2="60" stroke="#0f766e" stroke-width="6" stroke-linecap="round"/>
          <path d="M -10 -8 L -20 20 L -8 24" fill="none" stroke="#0f766e" stroke-width="5" stroke-linecap="round"/>
        </g>
        <text x="187" y="325" font-size="24" font-weight="700" fill="#0f766e" text-anchor="middle">• นั่งโน้มตัว 15–30 องศา</text>
        <text x="187" y="365" font-size="24" font-weight="700" fill="#0f766e" text-anchor="middle">• วางมือ/ข้อศอกบนหัวเข่า</text>
        <text x="187" y="395" font-size="22" font-weight="500" fill="#64748b" text-anchor="middle">ผ่อนคลายคอและหัวไหล่</text>
      </g>

      <g transform="translate(445, 125)">
        <!-- Posture B: Table -->
        <rect x="0" y="0" width="375" height="420" rx="20" fill="#ffffff" stroke="#14b8a6" stroke-width="3"/>
        <rect x="0" y="0" width="375" height="60" rx="20" fill="#ccfbf1"/>
        <path d="M 0 35 L 0 60 L 375 60 L 375 35 Z" fill="#ccfbf1"/>
        <text x="187" y="40" font-size="28" font-weight="800" fill="#0f766e" text-anchor="middle">ท่าที่ 2: วางศอกบนโต๊ะ</text>

        <!-- Figure B -->
        <g transform="translate(187, 180) scale(1.4)">
          <circle cx="-15" cy="-35" r="18" fill="#fed7aa"/>
          <path d="M -24 -15 L 0 -15 L 0 25 L -20 25 Z" fill="#2dd4bf"/>
          <line x1="12" y1="-5" x2="45" y2="-5" stroke="#94a3b8" stroke-width="6" stroke-linecap="round"/>
          <line x1="38" y1="-5" x2="38" y2="60" stroke="#94a3b8" stroke-width="5" stroke-linecap="round"/>
          <path d="M -18 -8 L 18 -10 L 22 2" fill="none" stroke="#0f766e" stroke-width="5" stroke-linecap="round"/>
        </g>
        <text x="187" y="325" font-size="24" font-weight="700" fill="#0f766e" text-anchor="middle">• นั่งโน้มตัวเข้าหาโต๊ะ</text>
        <text x="187" y="365" font-size="24" font-weight="700" fill="#0f766e" text-anchor="middle">• วางข้อศอก/แขนบนหมอน</text>
        <text x="187" y="395" font-size="22" font-weight="500" fill="#64748b" text-anchor="middle">ก้มศีรษะพักสบาย ๆ</text>
      </g>

      <!-- Posture Rules Summary -->
      <g transform="translate(45, 575)">
        <rect width="775" height="285" rx="20" fill="#ffffff" stroke="#99f6e4" stroke-width="2"/>
        <text x="35" y="55" font-size="30" font-weight="800" fill="#0f766e">📋 4 กฎเหล็กของการจัดท่านั่งลดเหนื่อย:</text>
        <text x="35" y="110" class="body-normal">1. นั่งบนเก้าอี้ที่มั่นคง เท้าวางราบแตะพื้น ไม่นั่งลอย</text>
        <text x="35" y="160" class="body-normal">2. โน้มตัวไปข้างหน้าเล็กน้อย ช่วยให้กระบังลมอยู่ในแนวโค้งที่ดีที่สุด</text>
        <text x="35" y="210" class="body-normal">3. ผ่อนคลายกล้ามเนื้อบ่า คอ และไหล่ ไม่เกร็งยกไหล่</text>
        <text x="35" y="260" class="body-normal">4. ฝึกหายใจแบบเม้มปากควบคู่ไปด้วยจนกว่าอาการจะสงบ</text>
      </g>
    </g>
  </g>

  <!-- Column Divider 1 (Fold Line) -->
  <line x1="990" y1="0" x2="990" y2="2100" stroke="#cbd5e1" stroke-width="4" stroke-dasharray="16,12"/>

  <!-- ========================================================
       PANEL 2 (CENTER 990 - 1980): เทคนิคการไอขับเสมหะ (6 ขั้นตอน & Huff)
       ======================================================== -->
  <g transform="translate(990, 0)">
    <rect width="986" height="2100" fill="url(#bgInside)"/>

    <!-- Top Tag -->
    <rect x="70" y="70" width="300" height="60" rx="30" fill="#ffedd5" stroke="#ea580c" stroke-width="3"/>
    <text x="220" y="103" class="tag-text" fill="#c2410c">หัวข้อที่ 3</text>

    <!-- Main Title -->
    <text x="70" y="195" class="panel-header-title" fill="#c2410c">เทคนิคการไอขับเสมหะ</text>
    <text x="70" y="245" font-size="30" font-weight="600" fill="#64748b">ขับเสมหะออกจากปอดอย่างถูกวิธี ไม่เหนื่อยเค้นไอ</text>

    <!-- EFFECTIVE COUGH 6-STEPS CARD -->
    <g transform="translate(60, 290)">
      <rect width="866" height="1180" rx="28" fill="url(#cardGradWarn)" stroke="#f97316" stroke-width="4" filter="url(#cardShadow)"/>
      
      <!-- Card Header -->
      <rect x="0" y="0" width="866" height="95" rx="28" fill="#ea580c"/>
      <path d="M 0 55 L 0 95 L 866 95 L 866 55 Z" fill="#ea580c"/>
      <circle cx="65" cy="48" r="30" fill="#ffffff"/>
      <text x="65" y="50" font-size="30" font-weight="800" fill="#ea580c" text-anchor="middle" dominant-baseline="central">3</text>
      <text x="120" y="60" class="card-title" fill="#ffffff">การไออย่างมีประสิทธิภาพ (Effective Cough)</text>

      <!-- Subtitle -->
      <text x="40" y="140" font-size="28" font-weight="700" fill="#9a3412">6 ขั้นตอนสำคัญ (สำหรับผู้ป่วยที่มีแรงไอเพียงพอ):</text>

      <!-- 6 Grid Cards (3 Rows x 2 Cols) -->
      
      <!-- Step 1 -->
      <g transform="translate(40, 165)">
        <rect width="380" height="235" rx="18" fill="#ffffff" stroke="#fdba74" stroke-width="2.5"/>
        <circle cx="36" cy="36" r="22" fill="#ea580c"/>
        <text x="36" y="38" font-size="22" font-weight="800" fill="#ffffff" text-anchor="middle" dominant-baseline="central">1</text>
        <text x="72" y="44" font-size="26" font-weight="800" fill="#9a3412">จัดท่านั่งตัวตรง</text>
        <text x="25" y="100" class="body-normal">• นั่งตัวตรงบนเก้าอี้ เท้าแตะพื้น</text>
        <text x="25" y="145" class="body-normal">• หรือเอนพนัก 60–90 องศา</text>
        <text x="25" y="190" class="body-normal">• เพื่อให้ปอดขยายตัวเต็มที่</text>
      </g>

      <!-- Step 2 -->
      <g transform="translate(445, 165)">
        <rect width="380" height="235" rx="18" fill="#ffffff" stroke="#fdba74" stroke-width="2.5"/>
        <circle cx="36" cy="36" r="22" fill="#ea580c"/>
        <text x="36" y="38" font-size="22" font-weight="800" fill="#ffffff" text-anchor="middle" dominant-baseline="central">2</text>
        <text x="72" y="44" font-size="26" font-weight="800" fill="#9a3412">สูดหายใจเข้าลึก</text>
        <text x="25" y="100" class="body-normal">• สูดลมเข้าทางจมูกช้า ๆ</text>
        <text x="25" y="145" class="body-normal">• สังเกตหน้าท้องป่องขยาย</text>
        <text x="25" y="190" class="body-normal">• ให้อากาศอยู่หลังเสมหะ</text>
      </g>

      <!-- Step 3 -->
      <g transform="translate(40, 420)">
        <rect width="380" height="235" rx="18" fill="#ffffff" stroke="#fdba74" stroke-width="2.5"/>
        <circle cx="36" cy="36" r="22" fill="#ea580c"/>
        <text x="36" y="38" font-size="22" font-weight="800" fill="#ffffff" text-anchor="middle" dominant-baseline="central">3</text>
        <text x="72" y="44" font-size="26" font-weight="800" fill="#9a3412">กลั้นหายใจ 2–3 วิ</text>
        <text x="25" y="100" class="body-normal">• กลั้นนิ่งไว้ 2 ถึง 3 วินาที</text>
        <text x="25" y="145" class="body-normal">• ให้อากาศกระจายทั่วถุงลม</text>
        <text x="25" y="190" class="body-normal">• สร้างแรงดันในอกเตรียมไอ</text>
      </g>

      <!-- Step 4 -->
      <g transform="translate(445, 420)">
        <rect width="380" height="235" rx="18" fill="#ffffff" stroke="#fdba74" stroke-width="2.5"/>
        <circle cx="36" cy="36" r="22" fill="#ea580c"/>
        <text x="36" y="38" font-size="22" font-weight="800" fill="#ffffff" text-anchor="middle" dominant-baseline="central">4</text>
        <text x="72" y="44" font-size="26" font-weight="800" fill="#9a3412">เกร็งหน้าท้อง</text>
        <text x="25" y="100" class="body-normal">• เกร็งกล้ามเนื้อหน้าท้องแน่น</text>
        <text x="25" y="145" class="body-normal">• ใช้มือกดประคองหน้าท้อง</text>
        <text x="25" y="190" class="body-normal">• เพิ่มแรงผลักดันเสมหะ</text>
      </g>

      <!-- Step 5 (Full Width Accent) -->
      <g transform="translate(40, 675)">
        <rect width="786" height="240" rx="20" fill="#fee2e2" stroke="#ef4444" stroke-width="3"/>
        <circle cx="45" cy="40" r="26" fill="#dc2626"/>
        <text x="45" y="42" font-size="26" font-weight="800" fill="#ffffff" text-anchor="middle" dominant-baseline="central">5</text>
        <text x="85" y="50" font-size="32" font-weight="800" fill="#b91c1c">ไอแรง 2 ครั้งติดกัน (Double Cough)</text>
        <text x="40" y="115" class="body-bold" fill="#991b1b">• ครั้งที่ 1: ไอแรง ๆ เพื่อดันให้เสมหะหลุดออกจากผนังหลอดลม</text>
        <text x="40" y="165" class="body-bold" fill="#15803d">• ครั้งที่ 2: ไอซ้ำทันทีเพื่อขับเสมหะพุ่งขึ้นสู่ลำคอ</text>
        <text x="40" y="210" class="body-normal">ขับเสมหะได้หมดจดในครั้งเดียว ไม่ต้องเค้นไอซ้ำจนเหนื่อย</text>
      </g>

      <!-- Step 6 -->
      <g transform="translate(40, 935)">
        <rect width="786" height="200" rx="20" fill="#ffffff" stroke="#16a34a" stroke-width="2.5"/>
        <circle cx="45" cy="40" r="26" fill="#16a34a"/>
        <text x="45" y="42" font-size="26" font-weight="800" fill="#ffffff" text-anchor="middle" dominant-baseline="central">6</text>
        <text x="85" y="50" font-size="30" font-weight="800" fill="#15803d">บ้วนเสมหะลงทิชชูสะอาด &amp; ล้างมือ</text>
        <text x="40" y="115" class="body-normal">• บ้วนเสมหะลงในกระดาษทิชชู พับมิดชิดทิ้งลงถังขยะ</text>
        <text x="40" y="165" class="body-normal">• ล้างมือให้สะอาด นั่งพักผ่อนคลาย หายใจสบาย ๆ</text>
      </g>
    </g>

    <!-- HUFF COUGH CARD -->
    <g transform="translate(60, 1500)">
      <rect width="866" height="530" rx="28" fill="#f0fdf4" stroke="#10b981" stroke-width="4" filter="url(#cardShadow)"/>
      <rect x="0" y="0" width="866" height="85" rx="28" fill="#059669"/>
      <path d="M 0 50 L 0 85 L 866 85 L 866 50 Z" fill="#059669"/>
      
      <circle cx="65" cy="42" r="26" fill="#ffffff"/>
      <text x="65" y="44" font-size="28" text-anchor="middle" dominant-baseline="central">⭐</text>
      <text x="110" y="54" class="card-title" fill="#ffffff">การไอแบบฮัฟ (Huff Cough - แนะนำสำหรับ COPD)</text>

      <text x="40" y="140" class="body-bold" fill="#065f46">เทคนิคใช้แรงน้อย เหมาะสำหรับผู้สูงอายุที่เหนื่อยง่าย:</text>
      <text x="40" y="195" class="body-normal">1. นั่งตัวตรง สูดหายใจเข้าลึกปานกลางทางจมูก</text>
      <text x="40" y="245" class="body-normal">2. อ้าปากเป็นรูปวงกลม (คล้ายเตรียมเป่าลมใส่กระจกให้เกิดฝ้า)</text>
      <text x="40" y="295" class="body-bold" fill="#047857">3. พ่นลมหายใจออกแรง ๆ สั้น ๆ พร้อมออกเสียง "ฮัฟ" 1–2 ครั้ง</text>
      <text x="40" y="345" class="body-normal">4. เมื่อเสมหะเคลื่อนขึ้นมาที่คอหอย ให้ไอออกเบา ๆ</text>

      <rect x="35" y="400" width="796" height="100" rx="16" fill="#d1fae5" stroke="#059669" stroke-width="2"/>
      <text x="433" y="445" font-size="26" font-weight="800" fill="#065f46" text-anchor="middle">✨ ข้อดีเด่น: หลอดลมไม่ตีบแฟบ ประหยัดพลังงาน</text>
      <text x="433" y="480" font-size="24" font-weight="600" fill="#047857" text-anchor="middle">ช่วยไล่เสมหะที่อยู่ส่วนลึกของปอดขึ้นมาได้อย่างมีประสิทธิภาพ</text>
    </g>
  </g>

  <!-- Column Divider 2 (Fold Line) -->
  <line x1="1980" y1="0" x2="1980" y2="2100" stroke="#cbd5e1" stroke-width="4" stroke-dasharray="16,12"/>

  <!-- ========================================================
       PANEL 3 (RIGHT 1980 - 2970): ออกกำลังกายฟื้นฟูปอด & สัญญาณเตือน
       ======================================================== -->
  <g transform="translate(1980, 0)">
    <rect width="990" height="2100" fill="url(#bgInside)"/>

    <!-- Top Tag -->
    <rect x="70" y="70" width="340" height="60" rx="30" fill="#f3e8ff" stroke="#7c3aed" stroke-width="3"/>
    <text x="240" y="103" class="tag-text" fill="#6d28d9">หัวข้อที่ 4 และ 5</text>

    <!-- Main Title -->
    <text x="70" y="195" class="panel-header-title" fill="#6d28d9">ออกกำลังกายฟื้นฟูปอด</text>
    <text x="70" y="245" font-size="30" font-weight="600" fill="#64748b">เพิ่มความแข็งแรงของหัวใจ กล้ามเนื้อ และความจุของปอด</text>

    <!-- CARD 4: PULMONARY EXERCISE PROGRAM -->
    <g transform="translate(60, 290)">
      <rect width="866" height="880" rx="28" fill="url(#cardGradPurple)" stroke="#a855f7" stroke-width="4" filter="url(#cardShadow)"/>
      
      <!-- Card Header -->
      <rect x="0" y="0" width="866" height="95" rx="28" fill="#7c3aed"/>
      <path d="M 0 55 L 0 95 L 866 95 L 866 55 Z" fill="#7c3aed"/>
      <circle cx="65" cy="48" r="30" fill="#ffffff"/>
      <text x="65" y="50" font-size="30" font-weight="800" fill="#7c3aed" text-anchor="middle" dominant-baseline="central">4</text>
      <text x="120" y="60" class="card-title" fill="#ffffff">โปรแกรมการออกกำลังกายฟื้นฟูปอด</text>

      <!-- Exercise 1: Aerobic -->
      <g transform="translate(45, 130)">
        <rect width="775" height="320" rx="20" fill="#ffffff" stroke="#c084fc" stroke-width="3"/>
        <circle cx="60" cy="55" r="38" fill="#f3e8ff"/>
        <text x="60" y="60" font-size="40" text-anchor="middle" dominant-baseline="central">🚶</text>
        <text x="120" y="50" font-size="34" font-weight="800" fill="#581c87">1. การออกกำลังกายแบบแอโรบิก</text>
        <text x="120" y="90" font-size="28" font-weight="700" fill="#7c3aed">เดินเร็วต่อเนื่อง / ปั่นจักรยานอยู่กับที่</text>

        <text x="40" y="160" class="body-bold" fill="#3b0764">• ความถี่: 3 – 5 วัน ต่อสัปดาห์</text>
        <text x="40" y="210" class="body-bold" fill="#3b0764">• ระยะเวลา: วันละ 20 – 30 นาที (พักเป็นช่วงได้ครั้งละ 10 นาที)</text>
        <text x="40" y="260" class="body-normal">• ความเหนื่อย: ระดับปานกลาง (ยังพอพูดคุยเป็นประโยคสั้นได้)</text>
      </g>

      <!-- Exercise 2: Strength -->
      <g transform="translate(45, 480)">
        <rect width="775" height="350" rx="20" fill="#ffffff" stroke="#c084fc" stroke-width="3"/>
        <circle cx="60" cy="55" r="38" fill="#f3e8ff"/>
        <text x="60" y="60" font-size="40" text-anchor="middle" dominant-baseline="central">🏋️</text>
        <text x="120" y="50" font-size="34" font-weight="800" fill="#581c87">2. การฝึกความแข็งแรงของกล้ามเนื้อ</text>
        <text x="120" y="90" font-size="28" font-weight="700" fill="#7c3aed">กล้ามเนื้อแขน ไหล่ ขา และหลัง</text>

        <text x="40" y="160" class="body-bold" fill="#3b0764">• ท่าฝึกแขน: ยกลูกตุ้มน้ำหนักเบา 0.5–1 กก. หรือขวดน้ำ</text>
        <text x="40" y="210" class="body-bold" fill="#3b0764">• ท่าฝึกขา: นั่งแล้วลุกขึ้นยืนจากเก้าอี้ / ยืนเขย่งปลายเท้า</text>
        <text x="40" y="260" class="body-bold" fill="#3b0764">• ความถี่: 2 – 3 วัน ต่อสัปดาห์ (ทำ 10–15 ครั้ง / 2–3 เซต)</text>
        <text x="40" y="305" class="body-normal">• หายใจออกขณะออกแรง ห้ามกลั้นหายใจเด็ดขาด</text>
      </g>
    </g>

    <!-- CARD 5: SAFETY WARNING SIGNS -->
    <g transform="translate(60, 1200)">
      <rect width="866" height="830" rx="28" fill="url(#cardGradDanger)" stroke="#ef4444" stroke-width="4" filter="url(#cardShadow)"/>
      
      <!-- Card Header -->
      <rect x="0" y="0" width="866" height="95" rx="28" fill="#dc2626"/>
      <path d="M 0 55 L 0 95 L 866 95 L 866 55 Z" fill="#dc2626"/>
      <circle cx="65" cy="48" r="30" fill="#ffffff"/>
      <text x="65" y="50" font-size="30" font-weight="800" fill="#dc2626" text-anchor="middle" dominant-baseline="central">5</text>
      <text x="120" y="60" class="card-title" fill="#ffffff">สัญญาณเตือนที่ต้องหยุดพักทันที!</text>

      <text x="40" y="150" font-size="30" font-weight="800" fill="#991b1b">⚠️ หากพบอาการเหล่านี้ขณะออกกำลังกาย ให้หยุดพักทันที:</text>

      <g transform="translate(45, 180)">
        <rect width="775" height="490" rx="20" fill="#ffffff" stroke="#fca5a5" stroke-width="2.5"/>

        <!-- Warning Item 1 -->
        <g transform="translate(30, 45)">
          <text x="0" y="30" font-size="32">📉</text>
          <text x="50" y="28" class="body-bold" fill="#b91c1c">ค่าออกซิเจน SpO₂ ลดต่ำกว่า 88 – 90%</text>
          <text x="50" y="65" class="body-normal">ให้หยุดพักและวัดซ้ำทันที</text>
        </g>

        <!-- Warning Item 2 -->
        <g transform="translate(30, 145)">
          <text x="0" y="30" font-size="32">🥵</text>
          <text x="50" y="28" class="body-bold" fill="#b91c1c">รู้สึกเหนื่อยหอบรุนแรง พูดไม่เป็นประโยค</text>
          <text x="50" y="65" class="body-normal">หรืออัตราการหายใจเร็วเกินกว่าปกติมาก</text>
        </g>

        <!-- Warning Item 3 -->
        <g transform="translate(30, 245)">
          <text x="0" y="30" font-size="32">💫</text>
          <text x="50" y="28" class="body-bold" fill="#b91c1c">มีอาการเวียนศีรษะ หน้ามืด คลื่นไส้ ใจสั่น</text>
          <text x="50" y="65" class="body-normal">รู้สึกตาลาย ทรงตัวไม่อยู่</text>
        </g>

        <!-- Warning Item 4 -->
        <g transform="translate(30, 345)">
          <text x="0" y="30" font-size="32">💔</text>
          <text x="50" y="28" class="body-bold" fill="#b91c1c">เจ็บหรือแน่นหน้าอก หรือปวดข้อรุนแรง</text>
          <text x="50" y="65" class="body-normal">เจ็บแปลบหรือร้าวไปที่แขนและกราม</text>
        </g>
      </g>

      <!-- Action Box -->
      <rect x="45" y="700" width="775" height="95" rx="18" fill="#dc2626"/>
      <text x="433" y="742" font-size="30" font-weight="800" fill="#ffffff" text-anchor="middle">🛑 ให้หยุดนั่งพักใน "ท่านั่งลดเหนื่อย" ทันที</text>
      <text x="433" y="776" font-size="24" font-weight="600" fill="#fef08a" text-anchor="middle">หากพัก 10–15 นาทีแล้วอาการไม่ดีขึ้น ให้รีบพบแพทย์</text>
    </g>
  </g>
</svg>
